<?xml version="1.0" encoding="UTF-8" standalone="no"?>
<svg
   viewBox="0 0 300 200"
   width="600"
   height="400"
   version="1.1"
   id="svg15569"
   sodipodi:docname="teacher spotlight miss zerbe text.svg"
   inkscape:version="1.2.2 (b0a84865, 2022-12-01)"
   xmlns:inkscape="http://www.inkscape.org/namespaces/inkscape"
   xmlns:sodipodi="http://sodipodi.sourceforge.net/DTD/sodipodi-0.dtd"
   xmlns="http://www.w3.org/2000/svg"
   xmlns:svg="http://www.w3.org/2000/svg"
   xmlns:rdf="http://www.w3.org/1999/02/22-rdf-syntax-ns#"
   xmlns:cc="http://creativecommons.org/ns#"
   xmlns:dc="http://purl.org/dc/elements/1.1/">
  <defs
     id="defs15573" />
  <sodipodi:namedview
     id="namedview15571"
     pagecolor="#ffffff"
     bordercolor="#000000"
     borderopacity="0.25"
     inkscape:showpageshadow="2"
     inkscape:pageopacity="0.0"
     inkscape:pagecheckerboard="0"
     inkscape:deskcolor="#d1d1d1"
     showgrid="false"
     inkscape:zoom="0.73898209"
     inkscape:cx="269.28934"
     inkscape:cy="230.04617"
     inkscape:window-width="1440"
     inkscape:window-height="760"
     inkscape:window-x="0"
     inkscape:window-y="25"
     inkscape:window-maximized="0"
     inkscape:current-layer="text1025"
     showguides="false" />
  <title
     id="title15561">example image</title>
  <style
     type="text/css"
     id="style15563">
    rect {fill: gray; stroke: none;}
    text {fill: white; stroke: none;
          font-family: Liberation Sans;
          font-size: 32pt;
          text-anchor: middle;}
  </style>
  <rect
     width="300"
     height="200"
     id="rect15565"
     style="fill:#762626;fill-opacity:1" />
  <metadata
     id="metadata15575">
    <rdf:RDF>
      <cc:Work
         rdf:about="">
        <dc:title>example image</dc:title>
      </cc:Work>
    </rdf:RDF>
  </metadata>
  <g
     aria-label="States
or Bust"
     id="text1025"
     style="font-size:49.231px;font-family:Rockwell;-inkscape-font-specification:Rockwell;text-align:center;text-anchor:middle;fill:#ffff00;fill-rule:evenodd;stroke-width:9.23082;stroke-linecap:round;stroke-linejoin:round">
    <path
       d="m 92.824258,54.026219 v -3.004822 h 6.153875 v 10.96159 h -6.153875 q -0.384617,-2.644243 -1.730778,-3.966365 -1.322121,-1.34616 -3.437516,-1.34616 -1.490391,0 -2.548088,0.84135 -1.057698,0.84135 -1.057698,2.115395 0,1.129813 0.67308,1.947124 0.67308,0.817312 1.730778,1.394238 1.057697,0.552887 3.173091,1.490391 l 1.466353,0.625003 q 4.783677,2.067317 7.211573,4.855792 2.451937,2.788475 2.451937,6.971186 0,4.975985 -2.860593,7.884653 -2.86059,2.884628 -7.692344,2.884628 -4.71156,0 -7.331765,-3.53367 v 3.100976 h -6.153875 v -12.30775 h 6.153875 q 0.192309,3.197131 1.634623,4.879831 1.466353,1.658661 3.942326,1.658661 1.658662,0 2.788475,-1.129813 1.153851,-1.129813 1.153851,-2.740397 0,-1.634623 -1.322121,-2.980783 -1.298083,-1.370199 -4.447136,-2.740398 -5.360602,-2.35578 -7.788498,-5.072139 -2.403858,-2.716358 -2.403858,-6.250029 0,-2.764436 1.274045,-5.0481 1.274044,-2.283665 3.509632,-3.581748 2.259626,-1.322121 4.903869,-1.322121 2.115394,0 3.846171,0.865388 1.730778,0.865389 2.860591,2.548089 z"
       id="path1875" />
    <path
       d="m 118.66572,61.982987 v 5.913489 h -4.66348 v 11.033706 q 0,1.17789 0.45673,1.778854 0.45674,0.576926 1.70674,0.576926 1.03366,0 2.50001,-0.528849 v 5.600988 q -3.2452,1.274044 -6.10579,1.274044 -3.29329,0 -4.95195,-1.658661 -1.63462,-1.6827 -1.63462,-4.735599 V 67.896476 h -3.19713 v -5.913489 h 3.19713 V 58.0647 l 8.02888,-5.769258 v 9.687545 z"
       id="path1877" />
    <path
       d="m 145.94951,72.079188 v 9.351005 h 4.08655 v 5.817335 h -12.11544 v -1.971163 q -3.43751,2.35578 -6.87503,2.35578 -4.15867,0 -6.65868,-2.139433 -2.50002,-2.139433 -2.50002,-5.769258 0,-3.846171 2.78848,-6.153874 2.81251,-2.331742 7.45196,-2.331742 1.61058,0 2.86059,0.360579 1.27404,0.33654 2.9327,1.17789 v -2.019241 q 0,-1.923085 -1.20193,-3.076937 -1.20193,-1.153851 -3.60578,-1.153851 -2.62021,0 -4.63945,2.01924 l -6.49041,-1.17789 q 2.95674,-5.961567 12.21159,-5.961567 6.34619,0 9.03851,2.620205 2.71636,2.596166 2.71636,8.052922 z m -13.10103,10.528895 q 2.16347,0 5.07214,-2.596166 v -2.259626 q -2.59616,-1.6827 -4.75964,-1.6827 -1.73077,0 -2.64424,0.817312 -0.91346,0.817311 -0.91346,2.331741 0,3.389439 3.2452,3.389439 z"
       id="path1879" />
    <path
       d="m 168.59384,61.982987 v 5.913489 h -4.66348 v 11.033706 q 0,1.17789 0.45673,1.778854 0.45673,0.576926 1.70674,0.576926 1.03366,0 2.50001,-0.528849 v 5.600988 q -3.24521,1.274044 -6.1058,1.274044 -3.29328,0 -4.95194,-1.658661 -1.63462,-1.6827 -1.63462,-4.735599 V 67.896476 h -3.19713 v -5.913489 h 3.19713 V 58.0647 l 8.02888,-5.769258 v 9.687545 z"
       id="path1881" />
    <path
       d="m 198.28148,76.309977 h -18.84624 q 0.28846,2.908667 1.9952,4.615406 1.73078,1.6827 4.44714,1.6827 3.00482,0 5.86541,-2.980783 l 6.25003,2.01924 q -2.06732,3.100976 -5.12022,4.663484 -3.0529,1.538468 -7.23561,1.538468 -4.18271,0 -7.40388,-1.562507 -3.19713,-1.586546 -4.97599,-4.471175 -1.75481,-2.884628 -1.75481,-6.778877 0,-3.846172 1.82693,-6.971187 1.85097,-3.125014 4.97598,-4.87983 3.14906,-1.778855 6.82696,-1.778855 3.9904,0 6.94715,1.85097 2.95674,1.826932 4.54329,5.216371 1.61058,3.3654 1.65866,7.836575 z m -13.53372,-9.543314 q -2.16347,0 -3.48559,1.250006 -1.29808,1.250006 -1.63462,3.822133 h 10.52889 q -0.33654,-2.259626 -1.85097,-3.653863 -1.49039,-1.418276 -3.55771,-1.418276 z"
       id="path1883" />
    <path
       d="m 216.64695,62.872414 v -0.889427 h 5.74522 v 7.403881 h -5.74522 q -0.74519,-2.668282 -5.52887,-2.668282 -3.43751,0 -3.43751,1.923086 0,0.84135 0.91346,1.250006 0.91347,0.408656 2.66828,0.67308 4.92791,0.625003 7.76446,1.802893 2.83655,1.153851 3.96637,2.884629 1.12981,1.706739 1.12981,4.158673 0,3.990403 -2.7404,6.225991 -2.71636,2.211548 -7.40388,2.211548 -4.56733,0 -6.20195,-1.826931 v 1.225967 h -5.86541 v -8.701964 h 5.86541 q 0.24039,1.802893 1.73078,2.836552 1.51443,1.033659 3.72598,1.033659 2.16347,0 3.19713,-0.480772 1.03365,-0.50481 1.03365,-1.730777 0,-0.84135 -0.43269,-1.298083 -0.43269,-0.480771 -1.6827,-0.84135 -1.22597,-0.360579 -3.77406,-0.817312 -5.6731,-0.889427 -8.17311,-2.86059 -2.47597,-1.995201 -2.47597,-5.360602 0,-3.437516 2.57212,-5.408679 2.59617,-1.971163 6.82696,-1.971163 3.41348,0 6.32214,1.225967 z"
       id="path1885" />
    <path
       d="m 87.367502,136.14199 q 0,3.77405 -1.778855,6.80291 -1.778854,3.02886 -4.807715,4.7356 -3.02886,1.70674 -6.658685,1.70674 -3.846171,0 -6.875032,-1.70674 -3.02886,-1.70674 -4.735599,-4.7356 -1.6827,-3.02886 -1.6827,-6.80291 0,-3.75002 1.730777,-6.75484 1.754816,-3.00482 4.807715,-4.71156 3.052899,-1.73078 6.754839,-1.73078 3.774056,0 6.802917,1.73078 3.02886,1.70674 4.735599,4.71156 1.706739,3.00482 1.706739,6.75484 z m -13.293332,6.97118 q 2.35578,0 3.677902,-1.82693 1.34616,-1.85097 1.34616,-5.28848 0,-3.22117 -1.34616,-5.02407 -1.322122,-1.82693 -3.725979,-1.82693 -2.427896,0 -3.677902,1.8029 -1.250006,1.77885 -1.250006,5.38464 0,3.05289 1.346161,4.9279 1.370198,1.85097 3.629824,1.85097 z"
       id="path1887" />
    <path
       d="m 111.64646,123.23327 v 7.57215 q -3.31732,0.21635 -5.28848,1.0577 -1.94713,0.81731 -3.02887,2.83655 -1.05769,2.01924 -1.05769,5.76926 v 2.50001 h 5.02406 v 5.81734 H 89.579051 v -5.81734 h 4.639444 v -13.53372 h -4.399059 v -5.91348 h 11.778904 v 6.4183 q 0.88942,-2.90867 3.29328,-4.83176 2.40386,-1.92308 5.96157,-1.92308 0.52885,0 0.79327,0.0481 z"
       id="path1889" />
    <path
       d="m 159.14668,122.05538 q 0,5.26445 -5.12021,7.476 3.29328,1.22597 4.90387,3.38944 1.61058,2.13943 1.61058,5.28848 0,10.57698 -15.86546,10.57698 h -16.827 v -6.15388 h 4.47118 v -23.91838 h -4.47118 v -6.15387 h 16.827 q 7.33177,0 10.88948,2.35578 3.58174,2.35578 3.58174,7.13945 z m -9.39908,0.48077 q 0,-2.11539 -1.53847,-2.95674 -1.51443,-0.86539 -4.27886,-0.86539 h -2.21155 v 8.17312 h 2.90867 q 2.57212,0 3.84617,-0.98559 1.27404,-0.98558 1.27404,-3.3654 z m 1.12982,15.40873 q 0,-2.64424 -1.53847,-3.79809 -1.51443,-1.15386 -5.24041,-1.15386 h -2.37982 v 9.63947 h 3.70194 q 2.50001,0 3.96636,-1.12981 1.4904,-1.12981 1.4904,-3.55771 z"
       id="path1891" />
    <path
       d="m 178.83428,142.53625 q 2.06731,0 4.47117,-1.82693 v -11.2741 h -3.87021 v -5.91348 h 11.89909 v 19.4472 h 4.13464 v 5.81734 h -12.16352 v -2.1154 q -3.77406,2.50001 -7.33176,2.50001 -3.67791,0 -5.72119,-2.04327 -2.04327,-2.04328 -2.04327,-5.62503 v -12.06737 h -3.7981 v -5.91348 h 11.7789 v 15.91353 q 0,1.77886 0.55289,2.45194 0.57693,0.64904 2.09136,0.64904 z"
       id="path1893" />
    <path
       d="m 213.54598,124.41116 v -0.88942 h 5.74522 v 7.40388 h -5.74522 q -0.7452,-2.66829 -5.52887,-2.66829 -3.43752,0 -3.43752,1.92309 0,0.84135 0.91347,1.25001 0.91346,0.40865 2.66828,0.67308 4.9279,0.625 7.76446,1.80289 2.83655,1.15385 3.96636,2.88463 1.12981,1.70674 1.12981,4.15867 0,3.99041 -2.74039,6.22599 -2.71636,2.21155 -7.40388,2.21155 -4.56733,0 -6.20196,-1.82693 v 1.22597 h -5.86541 v -8.70197 h 5.86541 q 0.24039,1.8029 1.73078,2.83655 1.51443,1.03366 3.72598,1.03366 2.16347,0 3.19713,-0.48077 1.03366,-0.50481 1.03366,-1.73078 0,-0.84135 -0.4327,-1.29808 -0.43269,-0.48077 -1.6827,-0.84135 -1.22596,-0.36058 -3.77405,-0.81731 -5.6731,-0.88943 -8.17312,-2.86059 -2.47597,-1.9952 -2.47597,-5.3606 0,-3.43752 2.57213,-5.40868 2.59616,-1.97116 6.82695,-1.97116 3.41348,0 6.32215,1.22596 z"
       id="path1895" />
    <path
       d="m 239.1711,123.52174 v 5.91348 h -4.66349 v 11.03371 q 0,1.17789 0.45674,1.77885 0.45673,0.57693 1.70674,0.57693 1.03365,0 2.50001,-0.52885 v 5.60099 q -3.24521,1.27404 -6.1058,1.27404 -3.29329,0 -4.95195,-1.65866 -1.63462,-1.6827 -1.63462,-4.7356 v -13.34141 h -3.19713 v -5.91348 h 3.19713 v -3.91829 l 8.02888,-5.76926 v 9.68755 z"
       id="path1897" />
  </g>
</svg>
