<?xml version="1.0" encoding="UTF-8" standalone="no"?>
<svg
   id="Layer_1"
   data-name="Layer 1"
   viewBox="0 0 800 413.09"
   version="1.1"
   sodipodi:docname="YWCA logo.svg"
   width="800"
   height="413.09"
   inkscape:version="1.2.2 (b0a84865, 2022-12-01)"
   xmlns:inkscape="http://www.inkscape.org/namespaces/inkscape"
   xmlns:sodipodi="http://sodipodi.sourceforge.net/DTD/sodipodi-0.dtd"
   xmlns="http://www.w3.org/2000/svg"
   xmlns:svg="http://www.w3.org/2000/svg">
  <sodipodi:namedview
     id="namedview150"
     pagecolor="#ffffff"
     bordercolor="#000000"
     borderopacity="0.25"
     inkscape:showpageshadow="2"
     inkscape:pageopacity="0.0"
     inkscape:pagecheckerboard="0"
     inkscape:deskcolor="#d1d1d1"
     showgrid="false"
     inkscape:zoom="0.57130408"
     inkscape:cx="258.18125"
     inkscape:cy="287.93773"
     inkscape:window-width="1440"
     inkscape:window-height="763"
     inkscape:window-x="0"
     inkscape:window-y="25"
     inkscape:window-maximized="0"
     inkscape:current-layer="Layer_1" />
  <defs
     id="defs134">
    <style
       id="style132">.cls-1{fill:#2a3785;}.cls-2{fill:#fff;}</style>
  </defs>
  <path
     class="cls-1"
     d="M 161.5,0 400,413.1 638.5,0 Z m 112,64.67 h 253 L 400,283.77 Z"
     id="path136" />
  <rect
     class="cls-1"
     x="163"
     y="110.45"
     width="475"
     height="86"
     id="rect138" />
  <g
     id="Layer_3"
     data-name="Layer 3"
     transform="translate(161.5)">
    <path
       class="cls-2"
       d="m 185.84,267.54 v 19.23 H 168 v -19.46 l -20,-33.53 h 18.85 l 10.82,18.32 10.9,-18.32 h 17.25 z"
       transform="translate(-61.5,-107.55)"
       id="path140" />
    <path
       class="cls-2"
       d="m 307.17,233.78 -17,53 h -19.11 l -8.55,-28.31 -9,28.31 h -19.15 l -17,-53 h 18.39 l 9.25,30.13 9.76,-30.13 h 16.43 l 9.23,30.51 9.76,-30.51 z"
       transform="translate(-61.5,-107.55)"
       id="path142" />
    <path
       class="cls-2"
       d="m 337.74,284.46 a 26.29,26.29 0 0 1 -10.55,-9.84 28.78,28.78 0 0 1 0,-28.69 26.29,26.29 0 0 1 10.55,-9.84 32.28,32.28 0 0 1 15.14,-3.52 33.2,33.2 0 0 1 13.78,2.73 25.7,25.7 0 0 1 10,7.87 l -11.28,10.07 Q 360.45,247 353.79,247 a 11.82,11.82 0 0 0 -9,3.6 q -3.4,3.59 -3.4,9.64 0,6.05 3.4,9.65 a 11.82,11.82 0 0 0 9,3.6 q 6.66,0 11.58,-6.21 l 11.28,10.07 a 25.61,25.61 0 0 1 -10,7.87 33.2,33.2 0 0 1 -13.77,2.78 32.28,32.28 0 0 1 -15.14,-3.54 z"
       transform="translate(-61.5,-107.55)"
       id="path144" />
    <path
       class="cls-2"
       d="m 432.27,277.53 h -20.13 l -3.56,9.24 h -18.16 l 23.16,-53 h 17.56 l 23.16,53 h -18.47 z m -4.91,-12.86 -5.15,-13.33 -5.15,13.33 z"
       transform="translate(-61.5,-107.55)"
       id="path146" />
  </g>
</svg>
